<?xml version="1.0" encoding="UTF-8"?><svg id="Layer_2" xmlns="http://www.w3.org/2000/svg" viewBox="0 0 14 14"><g id="HelpButtonToolbar"><path d="M6.27,8.36c0-.38.06-.7.17-.95.11-.25.32-.52.62-.8l.54-.52c.18-.16.31-.32.41-.49.24-.42.18-1.02-.16-1.37-.44-.45-1.27-.41-1.69.05-.22.24-.34.54-.35.88l-1.48-.13c.09-.75.39-1.34.9-1.78.85-.72,2.18-.84,3.19-.38,1.06.49,1.56,1.8,1.13,2.89-.09.23-.22.44-.38.62-.16.18-.39.4-.68.66-.33.29-.54.52-.64.69-.1.17-.15.43-.15.76v.31h-1.42v-.46ZM6.99,9.54c1.24,0,1.22,1.85,0,1.85s-1.24-1.85,0-1.85ZM7,0C3.13,0,0,3.13,0,7s3.13,7,7,7,7-3.13,7-7S10.87,0,7,0ZM7,13c-3.31,0-6-2.69-6-6S3.69,1,7,1s6,2.69,6,6-2.69,6-6,6Z"/></g></svg>